Coordinates
version=1
nRows=43
nColumns=12
inDegrees=yes

Units are S.I. units (second, meters, Newtons, ...)
Angles are in degrees

endheader
time	SC_y	SC_z	SC_x	AC_y	AC_z	AC_x	GH_y	GH_z	GH_yy	EL_x	PS_y
       0.0              -27.07          24.19           32.2          39.58         -1.978         0.0711         -135.5          48.55         -64.31          17.95          25.08
   0.03396              -27.08          24.18          32.21          39.58          -1.98        0.06967         -135.4          48.55         -64.31          17.96          25.08
   0.06791              -27.08          24.18          32.21          39.58         -1.981        0.06815         -135.4          48.54         -64.31          17.97          25.09
    0.1019              -27.09          24.18          32.22          39.58         -1.982        0.06654         -135.4          48.53         -64.31          17.97           25.1
    0.1358              -27.09          24.17          32.22          39.58         -1.984        0.06482         -135.3          48.52         -64.31          17.98          25.11
    0.1698               -27.1          24.17          32.23          39.58         -1.985        0.06298         -135.3          48.51         -64.31          17.99          25.12
    0.2037               -27.1          24.17          32.24          39.58         -1.987        0.06103         -135.2           48.5         -64.31          17.99          25.13
    0.2377              -27.11          24.16          32.25          39.58         -1.989        0.05893         -135.2          48.49         -64.31           18.0          25.14
    0.2716              -27.12          24.16          32.25          39.58         -1.991        0.05669         -135.1          48.47         -64.31          18.01          25.15
    0.3056              -27.12          24.15          32.26          39.58         -1.993        0.05429         -135.1          48.46          -64.3          18.02          25.17
    0.3396              -27.13          24.14          32.27          39.58         -1.995        0.05171         -135.0          48.45          -64.3          18.03          25.18
    0.3735              -27.14          24.14          32.28          39.58         -1.998        0.04893         -135.0          48.43          -64.3          18.04           25.2
    0.4075              -27.15          24.13          32.29          39.58           -2.0        0.04594         -134.9          48.41          -64.3          18.05          25.21
    0.4414              -27.16          24.12          32.31          39.58         -2.003         0.0427         -134.8           48.4          -64.3          18.07          25.23
    0.4754              -27.17          24.12          32.32          39.58         -2.006         0.0392         -134.7          48.38          -64.3          18.08          25.25
    0.5093              -27.18          24.11          32.33          39.58         -2.009         0.0354         -134.6          48.36          -64.3           18.1          25.27
    0.5433              -27.19           24.1          32.35          39.58         -2.013        0.03128         -134.6          48.33         -64.29          18.11          25.29
    0.5772               -27.2          24.09          32.37          39.58         -2.017        0.02678         -134.5          48.31         -64.29          18.13          25.31
    0.6112              -27.22          24.08          32.38          39.58         -2.021        0.02187         -134.3          48.28         -64.29          18.15          25.34
    0.6452              -27.23          24.07           32.4          39.58         -2.026         0.0165         -134.2          48.25         -64.29          18.17          25.37
    0.6791              -27.25          24.05          32.43          39.59         -2.031         0.0106         -134.1          48.22         -64.28          18.19           25.4
    0.7131              -27.27          24.04          32.45          39.59         -2.036       0.004102         -133.9          48.19         -64.28          18.22          25.43
     0.747              -27.29          24.02          32.48          39.59         -2.043      -0.003072         -133.8          48.15         -64.28          18.25          25.47
     0.781              -27.31           24.0          32.51          39.59          -2.05       -0.01102         -133.6           48.1         -64.28          18.28          25.52
    0.8149              -27.34          23.98          32.54          39.59         -2.057       -0.01986         -133.4          48.05         -64.27          18.31          25.56
    0.8489              -27.37          23.96          32.58          39.59         -2.066       -0.02971         -133.2           48.0         -64.27          18.35          25.61
    0.8828               -27.4          23.94          32.62          39.59         -2.075       -0.04076         -132.9          47.94         -64.26           18.4          25.67
    0.9168              -27.44          23.91          32.67           39.6         -2.086       -0.05318         -132.6          47.87         -64.26          18.45          25.74
    0.9508              -27.48          23.88          32.72           39.6         -2.098       -0.06722         -132.3          47.79         -64.25           18.5          25.81
    0.9847              -27.52          23.84          32.78           39.6         -2.112       -0.08316         -132.0          47.71         -64.24          18.57           25.9
     1.019              -27.58           23.8          32.85           39.6         -2.128        -0.1014         -131.5          47.61         -64.23          18.64           26.0
     1.053              -27.64          23.76          32.92          39.61         -2.146        -0.1222         -131.1          47.49         -64.22          18.72          26.11
     1.087              -27.71           23.7          33.01          39.61         -2.167        -0.1463         -130.5          47.36         -64.21          18.82          26.24
     1.121              -27.79          23.64          33.12          39.62         -2.191        -0.1744         -129.9           47.2          -64.2          18.93          26.39
     1.154              -27.88          23.57          33.24          39.62          -2.22        -0.2071         -129.1          47.02         -64.19          19.06          26.56
     1.188               -28.0          23.48          33.39          39.63         -2.253        -0.2458         -128.3          46.81         -64.17          19.21          26.77
     1.222              -28.13          23.38          33.56          39.63         -2.293        -0.2917         -127.2          46.56         -64.15          19.39          27.01
     1.256              -28.29          23.26          33.76          39.64         -2.341        -0.3467         -126.0          46.26         -64.12          19.61          27.31
      1.29              -28.49          23.11          34.01          39.65         -2.399        -0.4133         -124.4          45.89         -64.09          19.88          27.66
     1.324              -28.72          22.93          34.32          39.67         -2.469        -0.4946         -122.6          45.45         -64.05           20.2          28.09
     1.358              -29.02           22.7          34.69          39.68         -2.556         -0.595         -120.3          44.89         -64.01           20.6          28.63
     1.392              -29.38          22.42          35.16           39.7         -2.665        -0.7202         -117.5          44.21         -63.95           21.1           29.3
     1.426              -29.84          22.07          35.75          39.73         -2.802        -0.8779         -113.9          43.34         -63.88          21.72          30.14
